<svg xmlns="http://www.w3.org/2000/svg" width="1024" height="1024" viewBox="0 0 1024 1024">
<g>
<path d="M 252.27 663.97 C249.67,662.93 242.48,656.09 163.61,579.64 C131.35,548.37 104.45,521.83 103.82,520.67 C101.68,516.66 101.08,511.58 102.20,507.00 C103.49,501.78 101.11,504.23 156.02,451.51 C176.63,431.71 206.14,403.32 221.58,388.41 C251.62,359.41 254.88,357.00 262.35,358.40 C270.48,359.93 277.00,367.31 277.00,375.00 C277.00,384.52 283.14,378.09 169.75,487.40 C156.14,500.52 145.00,511.58 145.00,511.97 C145.00,512.36 148.04,515.56 151.75,519.07 C162.16,528.91 269.14,632.17 271.86,635.00 C280.34,643.82 277.86,657.81 266.80,663.59 C263.81,665.15 255.73,665.37 252.27,663.97 ZM 756.50 663.13 C750.70,659.53 747.00,653.39 747.00,647.37 C747.00,639.84 747.60,639.23 869.25,522.27 C874.61,517.11 879.00,512.49 879.00,511.99 C879.00,511.49 874.62,506.90 869.26,501.79 C853.05,486.32 834.49,468.42 790.79,426.13 C759.45,395.81 748.79,384.89 747.92,382.27 C742.35,365.38 761.23,351.39 774.86,362.30 C777.06,364.06 810.59,396.04 849.37,433.37 C896.15,478.39 920.25,502.27 920.95,504.27 C922.44,508.56 922.25,516.62 920.59,519.80 C919.02,522.80 901.31,540.40 856.50,583.52 C840.00,599.40 819.53,619.19 811.00,627.50 C781.89,655.89 774.26,662.95 771.56,663.98 C767.25,665.62 759.83,665.20 756.50,663.13 ZM 334.93 648.21 C332.28,646.51 329.65,643.78 328.68,641.73 C326.74,637.66 326.47,629.87 328.15,626.68 C329.24,624.62 340.16,611.44 358.52,590.00 C363.00,584.78 384.01,560.19 405.23,535.37 C439.96,494.72 444.24,490.07 448.35,488.50 C453.64,486.48 459.95,487.02 464.26,489.85 C465.77,490.83 478.03,503.08 491.51,517.07 C504.99,531.06 516.66,542.50 517.43,542.50 C518.21,542.50 523.02,537.55 528.12,531.50 C533.22,525.45 540.82,516.45 545.01,511.50 C549.20,506.55 564.06,489.00 578.03,472.50 C591.99,456.00 610.08,434.72 618.21,425.21 C626.34,415.71 633.00,407.78 633.00,407.61 C633.00,407.44 626.93,402.17 619.50,395.90 C612.08,389.63 606.00,383.95 606.00,383.27 C606.00,382.59 607.24,381.76 608.75,381.41 C610.26,381.06 614.42,379.95 618.00,378.94 C630.65,375.37 695.11,359.00 696.54,359.00 C697.34,359.00 698.00,359.41 698.00,359.91 C698.00,360.41 696.20,381.09 694.00,405.88 C691.80,430.66 690.00,451.18 690.00,451.47 C690.00,453.68 685.00,450.43 673.73,440.89 C661.19,430.26 660.54,429.85 659.05,431.67 C657.61,433.43 611.72,487.79 590.00,513.46 C584.78,519.63 573.69,532.74 565.38,542.59 C540.77,571.73 530.66,583.23 527.82,585.31 C524.50,587.75 516.41,588.62 511.64,587.05 C508.93,586.15 501.76,579.27 482.31,558.90 C468.15,544.07 456.05,532.06 455.42,532.22 C454.79,532.37 432.36,558.11 405.58,589.40 C378.80,620.70 355.71,647.23 354.26,648.36 C352.44,649.80 349.78,650.54 345.57,650.79 C340.22,651.10 338.95,650.80 334.93,648.21 Z" fill="rgba(0,0,0,1)"/>
</g>
</svg>